# xmcd
#
# Track frame offsets:
#	150
#	13007
#	24877
#	35720
#	47410
#	59005
#	72080
#	81995
#	95740
#	108895
#	122727
#	133090
#
# Disc length: 1987 seconds
#
# Revision: 3
# Processed by: cddbd v1.5.1PL0 Copyright (c) Steve Scherf et al.
# Submitted via: EasyCDDAExtractor 4.6.9.1
#
DISCID=a007c10c
DTITLE=Dolly Parton, Loretta Lynn, Tammy Wynette - Honky Tonk Angels
DYEAR=1993
DGENRE=Country
TTITLE0=It Wasn't God Who Made Honky Tonk Angels (With Kitty Wells)
TTITLE1=Put It Off Until Tomorrow
TTITLE2=Silver Threads And Golden Needles
TTITLE3=Please Help Me I'm Falling (In Love With You)
TTITLE4=Sittin' On The Front Porch Swing
TTITLE5=Wings Of A Dove
TTITLE6=I Forgot More Than You'll Ever Know
TTITLE7=Wouldn't It Be Great
TTITLE8=That's The Way It Should Have Been
TTITLE9=Let Her Fly
TTITLE10=Lovesick Blues (With Patsy Cline)
TTITLE11=I Dreamed Of A Hillbilly Heaven
EXTD=
EXTT0=
EXTT1=
EXTT2=
EXTT3=
EXTT4=
EXTT5=
EXTT6=
EXTT7=
EXTT8=
EXTT9=
EXTT10=
EXTT11=
PLAYORDER=
